<svg width="1920" height="1082" viewBox="0 0 1920 1082" fill="none" xmlns="http://www.w3.org/2000/svg">
<path d="M0 0H1044.5C502 384.5 531 1080 1920 1080H0V0Z" fill="#3498DB"/>
<path d="M268.664 236.523C269.753 235.168 271.933 235.753 272.199 237.471L274.029 249.3C274.162 250.162 274.838 250.838 275.7 250.971L287.529 252.801C289.247 253.067 289.832 255.247 288.477 256.336L279.147 263.836C278.468 264.382 278.22 265.305 278.536 266.118L282.865 277.277C283.494 278.898 281.898 280.494 280.277 279.865L269.118 275.536C268.305 275.22 267.382 275.468 266.836 276.147L259.336 285.477C258.247 286.832 256.067 286.247 255.801 284.529L253.971 272.7C253.838 271.838 253.162 271.163 252.3 271.029L240.471 269.199C238.753 268.933 238.168 266.753 239.523 265.664L248.853 258.164C249.532 257.618 249.78 256.695 249.464 255.882L245.135 244.723C244.506 243.102 246.102 241.506 247.723 242.135L258.882 246.464C259.695 246.78 260.618 246.532 261.164 245.853L268.664 236.523Z" fill="#45A7E8"/>
<path d="M513.207 364.269C513.497 362.554 515.685 362 516.755 363.37L520.414 368.05C520.95 368.737 521.87 368.997 522.687 368.693L528.254 366.62C529.883 366.013 531.458 367.631 530.807 369.243L528.583 374.751C528.256 375.559 528.491 376.486 529.163 377.041L533.742 380.826C535.082 381.934 534.468 384.106 532.746 384.348L526.864 385.176C526.001 385.297 525.315 385.964 525.17 386.824L524.182 392.681C523.893 394.396 521.705 394.95 520.634 393.58L516.976 388.9C516.439 388.213 515.519 387.953 514.702 388.257L509.136 390.33C507.506 390.937 505.932 389.319 506.583 387.707L508.807 382.199C509.134 381.391 508.899 380.464 508.227 379.909L503.648 376.124C502.308 375.016 502.922 372.844 504.644 372.602L510.526 371.774C511.389 371.653 512.074 370.986 512.219 370.126L513.207 364.269Z" fill="#45A7E8"/>
<path d="M131.924 781.206C132.214 779.491 134.402 778.937 135.472 780.307L139.131 784.987C139.667 785.674 140.587 785.934 141.404 785.629L146.971 783.556C148.6 782.95 150.175 784.567 149.524 786.179L147.299 791.688C146.973 792.496 147.208 793.423 147.88 793.978L152.459 797.763C153.799 798.87 153.185 801.042 151.463 801.285L145.581 802.113C144.718 802.234 144.032 802.901 143.887 803.76L142.899 809.618C142.61 811.332 140.422 811.887 139.351 810.517L135.693 805.837C135.156 805.15 134.236 804.89 133.419 805.194L127.853 807.267C126.223 807.874 124.649 806.256 125.3 804.644L127.524 799.136C127.851 798.327 127.616 797.401 126.944 796.845L122.365 793.061C121.025 791.953 121.639 789.781 123.361 789.539L129.243 788.711C130.106 788.589 130.791 787.923 130.936 787.063L131.924 781.206Z" fill="#45A7E8"/>
<path d="M474.34 719.196C475.429 717.841 477.609 718.425 477.875 720.144L479.396 729.974C479.529 730.836 480.205 731.512 481.067 731.645L490.897 733.166C492.615 733.432 493.2 735.612 491.845 736.701L484.091 742.934C483.412 743.48 483.164 744.403 483.48 745.216L487.078 754.49C487.707 756.111 486.111 757.707 484.49 757.078L475.216 753.48C474.403 753.164 473.48 753.412 472.934 754.091L466.701 761.845C465.612 763.2 463.432 762.615 463.166 760.897L461.645 751.067C461.512 750.205 460.836 749.529 459.974 749.396L450.144 747.875C448.426 747.609 447.841 745.429 449.196 744.34L456.95 738.107C457.629 737.561 457.877 736.638 457.561 735.825L453.963 726.551C453.334 724.93 454.93 723.334 456.551 723.963L465.825 727.561C466.638 727.877 467.561 727.629 468.107 726.95L474.34 719.196Z" fill="#45A7E8"/>
<path d="M326.522 908.624C327.611 907.269 329.791 907.853 330.057 909.571L332.101 922.779C332.234 923.641 332.91 924.317 333.771 924.45L346.979 926.493C348.698 926.759 349.282 928.939 347.927 930.029L337.51 938.402C336.83 938.948 336.583 939.872 336.898 940.684L341.733 953.145C342.362 954.766 340.766 956.362 339.145 955.733L326.684 950.898C325.872 950.583 324.948 950.83 324.402 951.51L316.029 961.927C314.939 963.282 312.759 962.698 312.493 960.979L310.45 947.771C310.317 946.91 309.641 946.234 308.779 946.101L295.571 944.057C293.853 943.791 293.269 941.611 294.624 940.522L305.041 932.148C305.72 931.602 305.968 930.679 305.652 929.866L300.818 917.406C300.189 915.785 301.785 914.189 303.406 914.818L315.866 919.652C316.679 919.968 317.602 919.72 318.148 919.041L326.522 908.624Z" fill="#45A7E8"/>
<path d="M117.862 1033.53C118.127 1031.81 120.308 1031.22 121.397 1032.58L126.703 1039.18C127.249 1039.86 128.173 1040.11 128.985 1039.79L136.881 1036.73C138.502 1036.1 140.098 1037.7 139.469 1039.32L136.406 1047.21C136.09 1048.02 136.338 1048.95 137.017 1049.49L143.618 1054.8C144.973 1055.89 144.389 1058.07 142.671 1058.34L134.301 1059.63C133.44 1059.76 132.764 1060.44 132.63 1061.3L131.336 1069.67C131.07 1071.39 128.89 1071.97 127.8 1070.62L122.494 1064.02C121.948 1063.34 121.025 1063.09 120.212 1063.41L112.316 1066.47C110.695 1067.1 109.099 1065.5 109.728 1063.88L112.791 1055.99C113.107 1055.17 112.859 1054.25 112.18 1053.7L105.579 1048.4C104.224 1047.31 104.808 1045.13 106.526 1044.86L114.896 1043.57C115.757 1043.43 116.433 1042.76 116.567 1041.9L117.862 1033.53Z" fill="#45A7E8"/>
<path d="M622.862 933.526C623.127 931.808 625.308 931.224 626.397 932.579L631.703 939.18C632.249 939.859 633.173 940.107 633.985 939.791L641.881 936.728C643.502 936.099 645.098 937.695 644.469 939.316L641.406 947.212C641.09 948.025 641.338 948.948 642.017 949.494L648.618 954.8C649.973 955.89 649.389 958.07 647.671 958.336L639.301 959.63C638.44 959.764 637.764 960.44 637.63 961.301L636.336 969.671C636.07 971.389 633.89 971.973 632.8 970.618L627.494 964.017C626.948 963.338 626.025 963.09 625.212 963.406L617.316 966.469C615.695 967.098 614.099 965.502 614.728 963.881L617.791 955.985C618.107 955.173 617.859 954.249 617.18 953.703L610.579 948.397C609.224 947.308 609.808 945.127 611.526 944.862L619.896 943.567C620.757 943.433 621.433 942.757 621.567 941.896L622.862 933.526Z" fill="#45A7E8"/>
<path d="M915.862 1033.53C916.127 1031.81 918.308 1031.22 919.397 1032.58L924.703 1039.18C925.249 1039.86 926.173 1040.11 926.985 1039.79L934.881 1036.73C936.502 1036.1 938.098 1037.7 937.469 1039.32L934.406 1047.21C934.09 1048.02 934.338 1048.95 935.017 1049.49L941.618 1054.8C942.973 1055.89 942.389 1058.07 940.671 1058.34L932.301 1059.63C931.44 1059.76 930.764 1060.44 930.63 1061.3L929.336 1069.67C929.07 1071.39 926.89 1071.97 925.8 1070.62L920.494 1064.02C919.948 1063.34 919.025 1063.09 918.212 1063.41L910.316 1066.47C908.695 1067.1 907.099 1065.5 907.728 1063.88L910.791 1055.99C911.107 1055.17 910.859 1054.25 910.18 1053.7L903.579 1048.4C902.224 1047.31 902.808 1045.13 904.526 1044.86L912.896 1043.57C913.757 1043.43 914.433 1042.76 914.567 1041.9L915.862 1033.53Z" fill="#45A7E8"/>
<path d="M827.613 959.746C829.016 958.719 830.97 959.847 830.782 961.576L830.176 967.149C830.082 968.016 830.56 968.844 831.358 969.196L836.488 971.457C838.079 972.159 838.079 974.416 836.488 975.117L831.358 977.379C830.56 977.731 830.082 978.559 830.176 979.426L830.782 984.999C830.97 986.728 829.016 987.856 827.613 986.829L823.089 983.518C822.385 983.003 821.43 983.003 820.726 983.518L816.202 986.829C814.799 987.856 812.845 986.728 813.033 984.999L813.639 979.426C813.733 978.559 813.255 977.731 812.457 977.379L807.327 975.117C805.736 974.416 805.736 972.159 807.327 971.457L812.457 969.196C813.255 968.844 813.733 968.016 813.639 967.149L813.033 961.576C812.845 959.847 814.799 958.719 816.202 959.746L820.726 963.057C821.43 963.572 822.385 963.572 823.089 963.057L827.613 959.746Z" fill="#45A7E8"/>
<path d="M535.987 1052.42C536.252 1050.7 538.433 1050.11 539.522 1051.47L541.663 1054.13C542.209 1054.81 543.133 1055.06 543.945 1054.74L547.131 1053.51C548.752 1052.88 550.348 1054.47 549.72 1056.1L548.483 1059.28C548.168 1060.09 548.415 1061.02 549.095 1061.56L551.758 1063.71C553.114 1064.79 552.529 1066.97 550.811 1067.24L547.434 1067.76C546.572 1067.9 545.896 1068.57 545.763 1069.43L545.241 1072.81C544.975 1074.53 542.795 1075.11 541.705 1073.76L539.564 1071.09C539.018 1070.42 538.095 1070.17 537.282 1070.48L534.096 1071.72C532.475 1072.35 530.879 1070.75 531.508 1069.13L532.744 1065.95C533.059 1065.13 532.812 1064.21 532.132 1063.66L529.469 1061.52C528.114 1060.43 528.698 1058.25 530.416 1057.99L533.793 1057.46C534.655 1057.33 535.331 1056.65 535.464 1055.79L535.987 1052.42Z" fill="#45A7E8"/>
<path d="M652.987 631.416C653.252 629.698 655.433 629.114 656.522 630.469L658.663 633.132C659.209 633.812 660.133 634.059 660.945 633.744L664.131 632.508C665.752 631.879 667.348 633.475 666.72 635.096L665.483 638.282C665.168 639.095 665.415 640.018 666.095 640.564L668.758 642.705C670.114 643.795 669.529 645.975 667.811 646.241L664.434 646.763C663.572 646.896 662.896 647.572 662.763 648.434L662.241 651.811C661.975 653.529 659.795 654.114 658.705 652.758L656.564 650.095C656.018 649.415 655.095 649.168 654.282 649.483L651.096 650.72C649.475 651.348 647.879 649.752 648.508 648.132L649.744 644.945C650.059 644.133 649.812 643.209 649.132 642.663L646.469 640.522C645.114 639.433 645.698 637.252 647.416 636.987L650.793 636.464C651.655 636.331 652.331 635.655 652.464 634.793L652.987 631.416Z" fill="#45A7E8"/>
<path d="M638.114 249.31C638.38 247.592 640.56 247.008 641.649 248.363L645.449 253.09C645.995 253.77 646.919 254.017 647.731 253.702L653.386 251.508C655.007 250.879 656.603 252.475 655.974 254.096L653.78 259.75C653.464 260.563 653.712 261.486 654.391 262.032L659.118 265.832C660.474 266.922 659.889 269.102 658.171 269.368L652.177 270.295C651.316 270.428 650.64 271.104 650.507 271.966L649.579 277.96C649.314 279.678 647.133 280.262 646.044 278.907L642.244 274.18C641.698 273.5 640.775 273.253 639.962 273.568L634.308 275.762C632.687 276.391 631.091 274.795 631.719 273.174L633.913 267.52C634.229 266.707 633.981 265.783 633.302 265.237L628.575 261.437C627.22 260.348 627.804 258.168 629.522 257.902L635.516 256.975C636.377 256.842 637.053 256.166 637.187 255.304L638.114 249.31Z" fill="#45A7E8"/>
<path d="M68.1137 472.522C68.3795 470.804 70.5598 470.22 71.649 471.575L75.449 476.302C75.9952 476.981 76.9185 477.229 77.7312 476.913L83.3857 474.719C85.0065 474.091 86.6026 475.687 85.9737 477.307L83.7798 482.962C83.4644 483.775 83.7119 484.698 84.3913 485.244L89.1185 489.044C90.4735 490.133 89.8894 492.314 88.1712 492.579L82.1774 493.507C81.3159 493.64 80.6399 494.316 80.5067 495.177L79.5794 501.171C79.3136 502.889 77.1334 503.474 76.0441 502.118L72.2442 497.391C71.698 496.712 70.7747 496.464 69.9619 496.78L64.3075 498.974C62.6867 499.603 61.0906 498.006 61.7195 496.386L63.9134 490.731C64.2287 489.918 63.9813 488.995 63.3019 488.449L58.5747 484.649C57.2196 483.56 57.8038 481.38 59.522 481.114L65.5158 480.186C66.3773 480.053 67.0532 479.377 67.1865 478.516L68.1137 472.522Z" fill="#45A7E8"/>
<path d="M82.1137 196.522C82.3795 194.804 84.5598 194.22 85.649 195.575L89.449 200.302C89.9952 200.981 90.9185 201.229 91.7312 200.913L97.3857 198.719C99.0065 198.091 100.603 199.687 99.9737 201.307L97.7798 206.962C97.4644 207.775 97.7119 208.698 98.3913 209.244L103.118 213.044C104.474 214.133 103.889 216.314 102.171 216.579L96.1774 217.507C95.3159 217.64 94.6399 218.316 94.5067 219.177L93.5794 225.171C93.3136 226.889 91.1334 227.474 90.0441 226.118L86.2442 221.391C85.698 220.712 84.7747 220.464 83.9619 220.78L78.3075 222.974C76.6867 223.603 75.0906 222.006 75.7195 220.386L77.9134 214.731C78.2287 213.918 77.9813 212.995 77.3019 212.449L72.5747 208.649C71.2196 207.56 71.8038 205.38 73.522 205.114L79.5158 204.186C80.3773 204.053 81.0532 203.377 81.1865 202.516L82.1137 196.522Z" fill="#45A7E8"/>
</svg>
