<svg width="433" height="433" viewBox="0 0 433 433" fill="none" xmlns="http://www.w3.org/2000/svg">
<path d="M79.8615 368.064L49.4703 27.0625H383.53L353.098 368.009L216.297 405.938L79.8615 368.064Z" fill="#45A7E8"/>
<path d="M216.5 376.954L327.05 346.305L353.057 54.9505H216.5V376.954Z" fill="#1572B6"/>
<path d="M216.557 377.003L106.007 346.355L80 55H216.557V377.003Z" fill="#1572B6"/>
<path d="M271.843 178.491L275.659 135.664H216.5V93.8392H321.367L320.366 105.057L310.096 220.316H268.142L271.843 178.491Z" fill="white"/>
<path d="M216.757 287.106L216.567 287.16L169.993 274.576L151.5 108.5H113L130.888 306.889L216.554 330.677L216.757 330.623V287.106Z" fill="white"/>
<path d="M268.285 218.543L263.251 274.549L216.609 287.133V330.65L302.343 306.889L302.979 299.825L310.245 218.543H268.285V218.543Z" fill="white"/>
<path d="M251.359 295.98L275.003 347L311.365 326.006L287.698 275L251.359 295.98Z" fill="white"/>
<path d="M194 188.497V244.503L217.646 252L240.994 244.503V188.497L217.646 181L194 188.497Z" fill="white"/>
<path d="M216.65 93.8392V135.664H115.625L114.787 126.26L112.879 105.057L111.877 93.8392H216.65V93.8392Z" fill="white"/>
</svg>
